<?xml version="1.0" standalone="no"?>
<!DOCTYPE svg PUBLIC "-//W3C//DTD SVG 1.1//EN" "http://www.w3.org/Graphics/SVG/1.1/DTD/svg11.dtd" >
<svg xmlns="http://www.w3.org/2000/svg" xmlns:xlink="http://www.w3.org/1999/xlink" version="1.1">
<metadata>
Created by FontForge 20170731 at Fri Oct  8 20:14:55 1999
 By Aleksey,,,
Copyright (c) 1989, 1990 Adobe Systems Incorporated.  All Rights Reserved.Avant Garde Gothic is a registered trademark of International Typeface Corporation.
</metadata>
<defs>
<font id="AvantGarde-CondBook" horiz-adv-x="500" >
  <font-face 
    font-family="AvantGarde CondBook"
    font-weight="400"
    font-stretch="condensed"
    units-per-em="1000"
    panose-1="2 11 5 6 0 0 0 0 0 0"
    ascent="786"
    descent="-214"
    x-height="550"
    cap-height="724"
    bbox="-167 -214 1000 977"
    underline-thickness="50"
    underline-position="-200"
    unicode-range="U+0020-FB02"
  />
<missing-glyph horiz-adv-x="278" 
 />
    <glyph glyph-name=".notdef" horiz-adv-x="278" 
 />
    <glyph glyph-name=".null" horiz-adv-x="0" 
 />
    <glyph glyph-name="nonmarkingreturn" horiz-adv-x="333" 
 />
    <glyph glyph-name="space" unicode=" " horiz-adv-x="278" 
 />
    <glyph glyph-name="space" unicode="&#xa0;" horiz-adv-x="278" 
 />
    <glyph glyph-name="exclam" unicode="!" horiz-adv-x="222" 
d="M74 184v540h74v-540h-74zM148 0h-74v106h74v-106z" />
    <glyph glyph-name="quotedbl" unicode="&#x22;" horiz-adv-x="333" 
d="M78 453v271h58v-271h-58zM197 453v271h58v-271h-58z" />
    <glyph glyph-name="numbersign" unicode="#" horiz-adv-x="556" 
d="M501 290l-3 -66h-102l-32 -224h-68l31 224h-128l-32 -224h-69l31 224h-104l3 66h111l20 144h-104l3 66h110l31 224h69l-31 -224h128l31 224h70l-31 -224h96l-3 -66h-103l-20 -144h96zM357 434h-129l-21 -144h129z" />
    <glyph glyph-name="dollar" unicode="$" horiz-adv-x="556" 
d="M54 170h84q1 -60 37.5 -93.5t98.5 -33.5t98 34.5t36 96.5q0 50 -25.5 83.5t-63.5 49.5t-82 35t-82 39t-63.5 63t-25.5 105q0 84 54.5 135t125.5 52v80h58v-80q82 -10 126.5 -65.5t44.5 -139.5h-84q-2 63 -33 99t-93 34q-54 0 -84.5 -31.5t-30.5 -86.5q0 -36 19 -62.5
t49 -43t66.5 -31.5t73 -33t66.5 -42t49 -65t19 -95q0 -85 -52 -139t-136 -62v-94h-58v92q-86 3 -138.5 58t-53.5 141z" />
    <glyph glyph-name="percent" unicode="%" horiz-adv-x="889" 
d="M224 736q75 0 120.5 -52t45.5 -136t-45.5 -136t-120.5 -52t-120.5 52t-45.5 136t45.5 136t120.5 52zM224 684q-104 0 -104 -136t104 -136t104 136t-104 136zM665 364q75 0 120.5 -52t45.5 -136t-45.5 -136t-120.5 -52t-120.5 52t-45.5 136t45.5 136t120.5 52zM665 312
q-104 0 -104 -136t104 -136t104 136t-104 136zM628 736l-314 -748h-70l315 748h69z" />
    <glyph glyph-name="ampersand" unicode="&#x26;" horiz-adv-x="611" 
d="M264 389l139 -180l131 242l61 -33l-145 -269l121 -149h-96l-69 86q-33 -53 -77 -75.5t-109 -22.5q-89 0 -142 54t-53 142q0 76 33.5 126.5t103.5 94.5q-60 73 -60 163q0 75 39.5 121.5t113.5 46.5q66 0 104.5 -41.5t38.5 -108.5q0 -61 -37.5 -112.5t-96.5 -84.5zM103 194
q0 -57 31 -98.5t86 -41.5q90 0 141 88q-79 97 -159 206q-51 -35 -75 -68t-24 -86zM180 567q0 -63 46 -123q94 63 94 131q0 42 -15 65.5t-54 23.5q-71 0 -71 -97z" />
    <glyph glyph-name="quotesingle" unicode="'" horiz-adv-x="222" 
d="M82 453v271h58v-271h-58z" />
    <glyph glyph-name="parenleft" unicode="(" horiz-adv-x="389" 
d="M363 -124v-72q-131 66 -210 191.5t-79 277.5t79 277.5t210 191.5v-72q-108 -66 -163.5 -170t-55.5 -227t55.5 -227t163.5 -170z" />
    <glyph glyph-name="parenright" unicode=")" horiz-adv-x="389" 
d="M26 -196v72q108 66 163.5 170t55.5 227t-55.5 227t-163.5 170v72q131 -66 210 -191.5t79 -277.5t-79 -277.5t-210 -191.5z" />
    <glyph glyph-name="asterisk" unicode="*" horiz-adv-x="444" 
d="M50 606l32 58l126 -94l-20 154h68l-20 -154l126 94l32 -58l-138 -60l138 -61l-32 -59l-126 90l20 -150h-68l20 150l-126 -90l-32 59l140 61z" />
    <glyph glyph-name="plus" unicode="+" horiz-adv-x="600" 
d="M264 289v217h72v-217h217v-72h-217v-217h-72v217h-217v72h217z" />
    <glyph glyph-name="comma" unicode="," horiz-adv-x="278" 
d="M116 104h66l-112 -222h-66z" />
    <glyph glyph-name="hyphen" unicode="-" horiz-adv-x="333" 
d="M43 244v62h247v-62h-247z" />
    <glyph glyph-name="hyphen" unicode="&#xad;" horiz-adv-x="333" 
d="M43 244v62h247v-62h-247z" />
    <glyph glyph-name="period" unicode="." horiz-adv-x="278" 
d="M104 100h70v-100h-70v100z" />
    <glyph glyph-name="slash" unicode="/" horiz-adv-x="278" 
d="M-20 -12l245 748h73l-246 -748h-72z" />
    <glyph glyph-name="zero" unicode="0" horiz-adv-x="556" 
d="M524 362q0 -174 -63.5 -274t-182.5 -100t-182.5 100t-63.5 274t63.5 274t182.5 100t182.5 -100t63.5 -274zM440 362q0 147 -44 224.5t-118 77.5t-118 -77.5t-44 -224.5t44 -224.5t118 -77.5t118 77.5t44 224.5z" />
    <glyph glyph-name="one" unicode="1" horiz-adv-x="556" 
d="M138 658v66h194v-724h-78v658h-116z" />
    <glyph glyph-name="two" unicode="2" horiz-adv-x="556" 
d="M475 0h-426v67l278 304q48 52 61.5 89t13.5 82q0 51 -34 89.5t-96 38.5q-68 0 -102 -50t-32 -118h-84q0 112 58 173t163 61q92 0 151.5 -53t59.5 -141q0 -66 -27 -120t-102 -133l-204 -223h322v-66z" />
    <glyph glyph-name="three" unicode="3" horiz-adv-x="556" 
d="M34 214h84q0 -77 36.5 -118.5t108.5 -41.5q74 0 114 37.5t40 110.5q0 94 -51.5 126t-155.5 32v66q99 0 138.5 22.5t39.5 104.5q0 57 -34.5 87t-92.5 30q-61 0 -92.5 -37t-33.5 -98h-84q0 100 59.5 150.5t160.5 50.5q89 0 145 -51t56 -139q0 -125 -132 -148v-2
q78 -8 119.5 -62.5t41.5 -141.5q0 -95 -68 -149.5t-165 -54.5q-234 0 -234 226z" />
    <glyph glyph-name="four" unicode="4" horiz-adv-x="556" 
d="M328 164h-299v62l278 498h99v-494h96v-66h-96v-164h-78v164zM111 230h217v392h-2z" />
    <glyph glyph-name="five" unicode="5" horiz-adv-x="556" 
d="M49 202h84q0 -68 37.5 -108t99.5 -40q147 0 147 198q0 181 -137 181q-112 0 -138 -132l-68 17l37 406h336v-66h-273l-24 -223l2 -2q51 66 137 66q104 0 158 -68t54 -175q0 -121 -60.5 -194.5t-178.5 -73.5q-97 0 -154.5 55t-58.5 159z" />
    <glyph glyph-name="six" unicode="6" horiz-adv-x="556" 
d="M505 528h-78q-6 62 -34.5 99t-97.5 37q-81 0 -123.5 -76t-47.5 -218l2 -2q51 102 170 102q91 0 155 -63t64 -173q0 -112 -61.5 -179t-172.5 -67q-115 0 -178 88.5t-63 250.5q0 409 261 409q91 0 147.5 -57.5t56.5 -150.5zM143 226q0 -70 36.5 -118t107.5 -48t107.5 48
t36.5 118q0 71 -37 121.5t-107 50.5t-107 -50.5t-37 -121.5z" />
    <glyph glyph-name="seven" unicode="7" horiz-adv-x="556" 
d="M395 652h-349v72h430v-67l-233 -657h-89z" />
    <glyph glyph-name="eight" unicode="8" horiz-adv-x="556" 
d="M282 -12q-104 0 -175 57t-71 170q0 68 35.5 115.5t102.5 67.5v2q-47 14 -75 54t-28 95q0 89 57 138t148 49q88 0 148.5 -49.5t60.5 -134.5q0 -55 -29.5 -95.5t-77.5 -56.5v-2q66 -14 104 -64.5t38 -123.5q0 -99 -67 -160.5t-171 -61.5zM120 207q0 -67 45.5 -110
t112.5 -43t112.5 43t45.5 110t-45.5 110t-112.5 43t-112.5 -43t-45.5 -110zM278 432q51 0 87 32t36 87t-36 87t-87 32t-87 -32t-36 -87t36 -87t87 -32z" />
    <glyph glyph-name="nine" unicode="9" horiz-adv-x="556" 
d="M51 196h78q6 -61 34.5 -96.5t97.5 -39.5q161 0 171 286l-2 2q-54 -94 -170 -94q-91 0 -155 63t-64 173q0 112 61.5 179t172.5 67q114 0 177.5 -88.5t63.5 -250.5q0 -409 -261 -409q-91 0 -147.5 57.5t-56.5 150.5zM413 498q0 67 -37 116.5t-107 49.5t-107 -49.5
t-37 -116.5q0 -71 37 -121.5t107 -50.5t107 50.5t37 121.5z" />
    <glyph glyph-name="colon" unicode=":" horiz-adv-x="278" 
d="M104 456h70v-100h-70v100zM104 100h70v-100h-70v100z" />
    <glyph glyph-name="semicolon" unicode=";" horiz-adv-x="278" 
d="M116 104h66l-112 -222h-66zM104 456h70v-100h-70v100z" />
    <glyph glyph-name="less" unicode="&#x3c;" horiz-adv-x="600" 
d="M553 70v-78l-506 232v58l506 232v-78l-410 -183z" />
    <glyph glyph-name="equal" unicode="=" horiz-adv-x="600" 
d="M553 385v-72h-506v72h506zM553 193v-72h-506v72h506z" />
    <glyph glyph-name="greater" unicode="&#x3e;" horiz-adv-x="600" 
d="M47 -8v78l410 183l-410 183v78l506 -232v-58z" />
    <glyph glyph-name="question" unicode="?" horiz-adv-x="444" 
d="M98 498h-78v49q0 83 51 136t143 53q88 0 141.5 -51.5t53.5 -145.5q0 -45 -18 -81t-43.5 -58t-50.5 -40.5t-43 -40.5t-18 -48v-93h-74v121q0 31 17.5 55.5t42.5 41t49.5 34t42 45.5t17.5 64q0 131 -116 131q-68 0 -92.5 -39.5t-24.5 -132.5zM236 0h-74v106h74v-106z" />
    <glyph glyph-name="at" unicode="@" horiz-adv-x="800" 
d="M354 211q40 0 74.5 33.5t52.5 79.5t18 87q0 37 -23 65t-55 28q-63 0 -107.5 -64.5t-44.5 -132.5q0 -43 23.5 -69.5t61.5 -26.5zM534 496l19 62h68l-80 -279q-26 -75 11 -75q52 0 97.5 68t45.5 147q0 116 -81 186.5t-198 70.5q-131 0 -217 -92t-86 -225
q0 -132 89.5 -221.5t220.5 -89.5q70 0 134.5 30.5t107.5 83.5h67q-48 -81 -131.5 -127.5t-179.5 -46.5q-160 0 -270 108.5t-110 267.5q0 155 110 263.5t265 108.5q142 0 242.5 -87.5t100.5 -221.5q0 -64 -24.5 -120.5t-61.5 -91.5t-78 -55.5t-75 -20.5q-26 0 -44 16.5
t-19 46.5l-2 -1q-58 -62 -120 -62q-63 0 -104.5 46.5t-41.5 113.5q0 106 65 190.5t165 84.5q79 0 115 -78z" />
    <glyph glyph-name="A" unicode="A" 
d="M148 288h198l-98 370h-2zM128 222l-60 -222h-70l198 724h104l202 -724h-75l-61 222h-238z" />
    <glyph glyph-name="B" unicode="B" horiz-adv-x="556" 
d="M72 0v724h217q89 0 145.5 -49t56.5 -131q0 -137 -105 -167v-2q60 -5 99 -54t39 -121q0 -93 -59 -146.5t-154 -53.5h-239zM150 341v-275h148q62 0 102 32t40 104q0 139 -161 139h-129zM150 658v-251h123q64 0 99 32t35 91q0 61 -33.5 94.5t-98.5 33.5h-125z" />
    <glyph glyph-name="C" unicode="C" horiz-adv-x="556" 
d="M524 458h-76q-2 52 -18 98t-54 80t-92 34q-169 0 -169 -308q0 -145 45 -226.5t124 -81.5q151 0 162 196h78q0 -117 -63 -189.5t-183 -72.5q-119 0 -183 103.5t-64 270.5q0 168 65 271t186 103q114 0 177.5 -80t64.5 -198z" />
    <glyph glyph-name="D" unicode="D" horiz-adv-x="611" 
d="M72 0v724h223q138 0 211 -100t73 -262t-73 -262t-211 -100h-223zM150 658v-592h145q95 0 147.5 75t52.5 221t-52.5 221t-147.5 75h-145z" />
    <glyph glyph-name="E" unicode="E" 
d="M436 0h-364v724h364v-66h-286v-244h286v-66h-286v-282h286v-66z" />
    <glyph glyph-name="F" unicode="F" horiz-adv-x="444" 
d="M150 0h-78v724h334v-66h-256v-244h256v-66h-256v-348z" />
    <glyph glyph-name="G" unicode="G" horiz-adv-x="611" 
d="M548 493h-78q-7 77 -49 127t-114 50q-99 0 -145.5 -76.5t-46.5 -231.5t47 -231.5t147 -76.5q90 0 134.5 50.5t44.5 185.5h-244v66h322v-100q0 -125 -68.5 -196.5t-195.5 -71.5q-136 0 -203.5 102t-67.5 272t67.5 272t203.5 102q112 0 177 -66t69 -177z" />
    <glyph glyph-name="H" unicode="H" horiz-adv-x="611" 
d="M150 0h-78v724h78v-316h311v316h78v-724h-78v342h-311v-342z" />
    <glyph glyph-name="I" unicode="I" horiz-adv-x="222" 
d="M150 0h-78v724h78v-724z" />
    <glyph glyph-name="J" unicode="J" horiz-adv-x="444" 
d="M10 177h78q0 -62 24.5 -92.5t79.5 -30.5q102 0 102 129v541h78v-516q0 -124 -46 -172t-149 -48q-81 0 -124 51t-43 138z" />
    <glyph glyph-name="K" unicode="K" horiz-adv-x="556" 
d="M150 0h-78v724h78v-380h2l267 380h93l-201 -271l240 -453h-92l-200 384l-109 -153v-231z" />
    <glyph glyph-name="L" unicode="L" horiz-adv-x="444" 
d="M426 0h-354v724h78v-658h276v-66z" />
    <glyph glyph-name="M" unicode="M" horiz-adv-x="722" 
d="M150 0h-78v724h114l183 -596h2l165 596h114v-724h-78v594h-2l-172 -594h-63l-183 594h-2v-594z" />
    <glyph glyph-name="N" unicode="N" horiz-adv-x="611" 
d="M150 0h-78v724h84l303 -549h2v549h78v-724h-74l-313 576h-2v-576z" />
    <glyph glyph-name="O" unicode="O" horiz-adv-x="611" 
d="M305 736q137 0 205.5 -102t68.5 -272t-68.5 -272t-205.5 -102t-205.5 102t-68.5 272t68.5 272t205.5 102zM305 670q-190 0 -190 -308t190 -308t190 308t-190 308z" />
    <glyph glyph-name="P" unicode="P" horiz-adv-x="556" 
d="M150 658v-302h145q66 0 105.5 37.5t39.5 111.5q0 153 -154 153h-136zM150 0h-78v724h225q114 0 170.5 -60.5t56.5 -158.5t-56 -156.5t-171 -58.5h-147v-290z" />
    <glyph glyph-name="Q" unicode="Q" horiz-adv-x="611" 
d="M127 229q37 16 83 16q28 0 54 -6.5t43.5 -13.5t40 -23.5t32 -25t31.5 -29.5t28 -27q56 74 56 242q0 308 -190 308t-190 -308q0 -76 12 -133zM595 70v-73q-17 -3 -67 -3q-56 0 -96 25q-53 -31 -127 -31q-137 0 -205.5 102t-68.5 272t68.5 272t205.5 102t205.5 -102
t68.5 -272q0 -187 -80 -286q22 -10 45 -10q14 0 32 2zM148 161q44 -107 157 -107q40 0 71 14l-20 24t-21.5 25.5t-21.5 21t-27 19t-30.5 10.5t-39.5 5q-31 0 -68 -12z" />
    <glyph glyph-name="R" unicode="R" horiz-adv-x="556" 
d="M72 0v724h219q114 0 170.5 -60t56.5 -158q0 -91 -47 -151t-138 -61l203 -294h-95l-230 356v4h81q69 0 105.5 38t36.5 107q0 153 -154 153h-130v-658h-78z" />
    <glyph glyph-name="S" unicode="S" 
d="M24 219h78q0 -86 34 -125.5t119 -39.5q142 0 142 137q0 54 -37 86.5t-89.5 50t-105.5 37.5t-90 63.5t-37 112.5q0 94 58 144.5t155 50.5q98 0 153 -57.5t55 -160.5h-78q0 152 -140 152q-56 0 -90.5 -32t-34.5 -90q0 -45 26.5 -74.5t66.5 -42.5t86.5 -30t86.5 -36.5
t66.5 -63t26.5 -107.5q0 -103 -64 -154.5t-164 -51.5q-223 0 -223 231z" />
    <glyph glyph-name="T" unicode="T" horiz-adv-x="444" 
d="M10 652v72h424v-72h-173v-652h-78v652h-173z" />
    <glyph glyph-name="U" unicode="U" horiz-adv-x="556" 
d="M59 724h78v-520q0 -76 37 -113t104 -37t104 37t37 113v520h78v-536q0 -97 -56 -148.5t-163 -51.5t-163 51.5t-56 148.5v536z" />
    <glyph glyph-name="V" unicode="V" 
d="M428 724h75l-192 -724h-106l-208 724h75l184 -658h2z" />
    <glyph glyph-name="W" unicode="W" horiz-adv-x="833" 
d="M208 0l-203 724h74l174 -630h2l112 630h97l122 -630h2l164 630h76l-201 -724h-92l-116 618h-2l-110 -618h-99z" />
    <glyph glyph-name="X" unicode="X" 
d="M2 0l199 381l-174 343h85l133 -274l133 274h87l-172 -342l204 -382h-83l-163 314l-162 -314h-87z" />
    <glyph glyph-name="Y" unicode="Y" 
d="M496 724l-207 -436v-288h-78v288l-207 436h88l158 -354l159 354h87z" />
    <glyph glyph-name="Z" unicode="Z" horiz-adv-x="444" 
d="M418 0h-402v58l302 600h-293v66h387v-58l-304 -600h310v-66z" />
    <glyph glyph-name="bracketleft" unicode="[" horiz-adv-x="389" 
d="M351 -190h-249v914h249v-60h-179v-794h179v-60z" />
    <glyph glyph-name="backslash" unicode="\" horiz-adv-x="278" 
d="M53 736l245 -748h-72l-246 748h73z" />
    <glyph glyph-name="bracketright" unicode="]" horiz-adv-x="389" 
d="M287 -190h-249v60h179v794h-179v60h249v-914z" />
    <glyph glyph-name="asciicircum" unicode="^" horiz-adv-x="600" 
d="M128 282h-79l218 442h66l218 -442h-77l-173 352z" />
    <glyph glyph-name="underscore" unicode="_" 
d="M500 -125h-500v50h500v-50z" />
    <glyph glyph-name="grave" unicode="`" horiz-adv-x="222" 
d="M123 608l-137 140h77l111 -140h-51z" />
    <glyph glyph-name="a" unicode="a" 
d="M440 550v-550h-66v77h-2q-21 -49 -54.5 -68t-87.5 -19q-97 0 -146.5 80.5t-49.5 204.5q0 125 50.5 205t150.5 80q43 0 80.5 -21.5t56.5 -64.5h2v76h66zM108 275q0 -105 33 -162t98 -57q66 0 98.5 50.5t32.5 168.5t-32.5 168.5t-98.5 50.5q-67 0 -99 -53.5t-32 -165.5z
" />
    <glyph glyph-name="b" unicode="b" 
d="M60 0v724h74v-230h2q45 66 129 66q100 0 150.5 -80t50.5 -205q0 -124 -49.5 -204.5t-146.5 -80.5q-50 0 -82 15t-59 52h-2v-57h-67zM392 275q0 112 -32 165.5t-99 53.5q-66 0 -98.5 -50.5t-32.5 -168.5t32.5 -168.5t98.5 -50.5q65 0 98 57t33 162z" />
    <glyph glyph-name="c" unicode="c" horiz-adv-x="444" 
d="M411 354h-74q-3 58 -29.5 99t-77.5 41q-122 0 -122 -219q0 -107 33 -163t89 -56q53 0 78.5 35.5t34.5 99.5h73q-17 -201 -190 -201q-96 0 -144 73.5t-48 211.5q0 134 48.5 209.5t147.5 75.5q89 0 134 -57.5t47 -148.5z" />
    <glyph glyph-name="d" unicode="d" 
d="M440 724v-724h-67v57h-2q-27 -37 -59 -52t-82 -15q-97 0 -146.5 80.5t-49.5 204.5q0 125 50.5 205t150.5 80q84 0 129 -66h2v230h74zM108 275q0 -105 33 -162t98 -57q66 0 98.5 50.5t32.5 168.5t-32.5 168.5t-98.5 50.5q-67 0 -99 -53.5t-32 -165.5z" />
    <glyph glyph-name="e" unicode="e" horiz-adv-x="444" 
d="M416 248h-314q0 -80 35.5 -136t96.5 -56q50 0 77 38.5t34 94.5h71q0 -75 -53.5 -137t-129.5 -62q-94 0 -149.5 75t-55.5 211q0 126 53.5 205t146.5 79q89 0 138.5 -70t49.5 -195v-47zM102 314h240q0 84 -29.5 132t-87.5 48q-51 0 -86.5 -50.5t-36.5 -129.5z" />
    <glyph glyph-name="f" unicode="f" horiz-adv-x="222" 
d="M240 721v-57h-52q-25 0 -35 -13t-10 -42v-59h86v-60h-86v-490h-74v490h-69v60h69v57q0 117 115 117q8 0 17.5 -0.5t21 -1.5t17.5 -1z" />
    <glyph glyph-name="g" unicode="g" 
d="M367 550h69v-582q0 -182 -204 -182q-91 0 -141 46t-50 134h74q0 -114 120 -114q66 0 98.5 29.5t32.5 96.5v98h-2q-38 -86 -135 -86t-146 80t-49 205q0 124 48 204.5t142 80.5q111 0 141 -87h2v77zM108 275q0 -105 33 -162t98 -57q60 0 91.5 51t31.5 168t-31.5 168
t-91.5 51q-67 0 -99 -53.5t-32 -165.5z" />
    <glyph glyph-name="h" unicode="h" 
d="M134 0h-74v724h74v-230h2q40 66 137 66q84 0 125.5 -46.5t41.5 -119.5v-394h-74v372q0 122 -102 122q-61 0 -95.5 -38t-34.5 -93v-363z" />
    <glyph glyph-name="i" unicode="i" horiz-adv-x="222" 
d="M148 0h-74v550h74v-550zM148 630h-74v90h74v-90z" />
    <glyph glyph-name="j" unicode="j" horiz-adv-x="222" 
d="M74 550h74v-631q0 -70 -37 -101.5t-115 -31.5h-41v66h31q52 0 70 17.5t18 66.5v614zM148 630h-74v90h74v-90z" />
    <glyph glyph-name="k" unicode="k" horiz-adv-x="444" 
d="M134 0h-74v724h74v-458h2l194 284h83l-143 -197l166 -353h-80l-134 294l-88 -122v-172z" />
    <glyph glyph-name="l" unicode="l" horiz-adv-x="222" 
d="M148 0h-74v724h74v-724z" />
    <glyph glyph-name="m" unicode="m" horiz-adv-x="778" 
d="M426 0h-74v374q0 61 -23.5 91t-71.5 29q-60 0 -91.5 -36.5t-31.5 -93.5v-364h-74v550h74v-76h2q24 86 137 86q97 0 132 -80h2q27 43 61 61.5t86 18.5q75 0 119.5 -40t44.5 -128v-392h-74v374q0 61 -23.5 91t-71.5 29q-60 0 -91.5 -36.5t-31.5 -93.5v-364z" />
    <glyph glyph-name="n" unicode="n" 
d="M134 0h-74v550h74v-76h2q24 86 137 86q84 0 125.5 -46.5t41.5 -119.5v-394h-74v372q0 122 -102 122q-61 0 -95.5 -38t-34.5 -93v-363z" />
    <glyph glyph-name="o" unicode="o" 
d="M250 560q110 0 163 -79.5t53 -205.5t-53 -205.5t-163 -79.5t-163 79.5t-53 205.5t53 205.5t163 79.5zM250 494q-68 0 -105 -59.5t-37 -159.5t37 -159.5t105 -59.5t105 59.5t37 159.5t-37 159.5t-105 59.5z" />
    <glyph glyph-name="p" unicode="p" 
d="M60 -198v748h67v-57h2q27 37 59 52t82 15q97 0 146.5 -80.5t49.5 -204.5q0 -125 -50.5 -205t-150.5 -80q-84 0 -129 66h-2v-254h-74zM392 275q0 105 -33 162t-98 57q-66 0 -98.5 -50.5t-32.5 -168.5t32.5 -168.5t98.5 -50.5q67 0 99 53.5t32 165.5z" />
    <glyph glyph-name="q" unicode="q" 
d="M440 550v-748h-74v254h-2q-45 -66 -129 -66q-100 0 -150.5 80t-50.5 205q0 124 49.5 204.5t146.5 80.5q50 0 82 -15t59 -52h2v57h67zM108 275q0 -112 32 -165.5t99 -53.5q66 0 98.5 50.5t32.5 168.5t-32.5 168.5t-98.5 50.5q-65 0 -98 -57t-33 -162z" />
    <glyph glyph-name="r" unicode="r" horiz-adv-x="278" 
d="M134 0h-74v550h64v-72h2q16 49 50.5 65.5t99.5 16.5v-72h-32q-50 0 -80 -37.5t-30 -92.5v-358z" />
    <glyph glyph-name="s" unicode="s" horiz-adv-x="444" 
d="M402 390h-74q-8 104 -110 104q-44 0 -71 -22t-27 -64q0 -35 30 -55t72.5 -31t85 -25.5t72.5 -49.5t30 -91q0 -75 -52 -120.5t-141 -45.5q-85 0 -137 45t-52 126h74q0 -49 31.5 -77t76.5 -28q122 0 122 90q0 41 -30 63.5t-72.5 32.5t-85 23t-72.5 48t-30 95
q0 67 47.5 109.5t122.5 42.5q90 0 139.5 -44t50.5 -126z" />
    <glyph glyph-name="t" unicode="t" horiz-adv-x="222" 
d="M148 490v-490h-74v490h-69v60h69v170h74v-170h85v-60h-85z" />
    <glyph glyph-name="u" unicode="u" 
d="M366 550h74v-550h-74v76h-2q-24 -86 -137 -86q-84 0 -125.5 46.5t-41.5 119.5v394h74v-372q0 -122 102 -122q61 0 95.5 38t34.5 93v363z" />
    <glyph glyph-name="v" unicode="v" horiz-adv-x="444" 
d="M265 0h-94l-161 550h81l128 -458h2l133 458h80z" />
    <glyph glyph-name="w" unicode="w" horiz-adv-x="667" 
d="M199 84l94 466h89l95 -466h2l117 466h75l-154 -550h-84l-97 462h-2l-91 -462h-90l-158 550h77l125 -466h2z" />
    <glyph glyph-name="x" unicode="x" horiz-adv-x="444" 
d="M181 288l-155 262h89l109 -197l115 197h84l-157 -261l172 -289h-91l-123 229l-132 -229h-86z" />
    <glyph glyph-name="y" unicode="y" horiz-adv-x="444" 
d="M436 550l-243 -764h-78l66 198l-173 566h75l135 -475h2l138 475h78z" />
    <glyph glyph-name="z" unicode="z" horiz-adv-x="444" 
d="M37 490v60h367v-72l-289 -418h289v-60h-382v56l296 434h-281z" />
    <glyph glyph-name="braceleft" unicode="{" horiz-adv-x="389" 
d="M44 239v60q58 10 58 79v233q0 64 22.5 94.5t70.5 30.5h152v-60h-119q-32 0 -44 -16t-12 -56v-258q0 -65 -50 -76v-2q50 -11 50 -76v-258q0 -40 12 -56t44 -16h119v-60h-152q-48 0 -70.5 30.5t-22.5 94.5v233q0 69 -58 79z" />
    <glyph glyph-name="bar" unicode="|" horiz-adv-x="222" 
d="M75 -12v748h72v-748h-72z" />
    <glyph glyph-name="braceright" unicode="}" horiz-adv-x="389" 
d="M345 299v-60q-58 -10 -58 -79v-233q0 -64 -22.5 -94.5t-70.5 -30.5h-152v60h119q32 0 44 16t12 56v258q0 65 50 76v2q-50 11 -50 76v258q0 40 -12 56t-44 16h-119v60h152q48 0 70.5 -30.5t22.5 -94.5v-233q0 -69 58 -79z" />
    <glyph glyph-name="asciitilde" unicode="~" horiz-adv-x="600" 
d="M495 327l36 -58q-20 -27 -33 -42t-38 -29.5t-54 -14.5q-37 0 -105 34q-66 34 -115 34q-48 0 -81 -72l-36 58q45 86 125 86q40 0 116 -34t100 -34q38 0 85 72z" />
    <glyph glyph-name="exclamdown" unicode="&#xa1;" horiz-adv-x="222" 
d="M148 366v-540h-74v540h74zM74 550h74v-106h-74v106z" />
    <glyph glyph-name="cent" unicode="&#xa2;" horiz-adv-x="556" 
d="M248 736h58v-91q72 -12 109.5 -67.5t38.5 -135.5h-74q-5 66 -30 102t-80 36q-117 0 -117 -204q0 -232 117 -232q99 0 116 134h74q-3 -83 -43.5 -135t-110.5 -64v-91h-58v90q-48 4 -83.5 31.5t-54 70.5t-27 88t-8.5 93q0 49 8.5 94t27 88t54 71t83.5 34v88z" />
    <glyph glyph-name="sterling" unicode="&#xa3;" horiz-adv-x="556" 
d="M42 0v72h127q23 58 23 112q0 39 -14.5 68.5t-47.5 74.5q-5 7 -8 11h-101v60h53q-27 64 -27 100q0 102 60.5 170t161.5 68q90 0 151 -55.5t68 -144.5h-74q-4 58 -47 93t-101 35q-60 0 -97.5 -43.5t-37.5 -104.5t38 -118h236v-60h-186q29 -48 43 -83.5t14 -79.5
q0 -52 -18 -103h47q68 0 106 35.5t38 103.5q0 8 -1 22.5t-1 21.5h77q0 -7 1.5 -28.5t1.5 -34.5q0 -35 -11 -67t-34.5 -61t-67 -46.5t-102.5 -17.5h-270z" />
    <glyph glyph-name="currency" unicode="&#xa4;" horiz-adv-x="556" 
d="M454 362q0 75 -51.5 126.5t-124.5 51.5t-124.5 -51.5t-51.5 -126.5t51.5 -126.5t124.5 -51.5t124.5 51.5t51.5 126.5zM528 154l-42 -42l-54 54q-65 -52 -154 -52q-90 0 -155 51l-53 -53l-42 42l53 53q-51 69 -51 155t51 155l-53 53l42 42l53 -53q65 51 155 51
q88 0 155 -51l53 53l42 -42l-54 -51q52 -68 52 -157t-52 -154z" />
    <glyph glyph-name="yen" unicode="&#xa5;" horiz-adv-x="556" 
d="M500 296v-60h-183v-236h-78v236h-183v60h179l-50 106h-129v60h101l-125 262h88l158 -354l159 354h87l-125 -262h101v-60h-129l-50 -106h179z" />
    <glyph glyph-name="brokenbar" unicode="&#xa6;" horiz-adv-x="222" 
d="M147 272v-284h-72v284h72zM147 736v-284h-72v284h72z" />
    <glyph glyph-name="section" unicode="&#xa7;" horiz-adv-x="444" 
d="M367 653l-49 -34q-42 63 -93 63q-31 0 -48 -17t-17 -48q0 -22 25.5 -52.5t62 -63.5t73 -69.5t62 -80t25.5 -84.5q0 -45 -31.5 -71t-77.5 -29q24 -24 41 -60t17 -64q0 -56 -39 -89.5t-102 -33.5q-88 0 -147 88l52 36q13 -30 37 -50t50 -20q81 0 81 67q0 28 -26 63
t-63.5 69t-75 70t-63.5 78.5t-26 82.5q0 47 35 75t83 28q-61 54 -61 109q0 56 37 88t93 32q89 0 145 -83zM344 277q0 31 -72 107.5t-102 76.5q-71 0 -71 -59q0 -34 72.5 -111.5t110.5 -77.5q26 0 44 15t18 49z" />
    <glyph glyph-name="dieresis" unicode="&#xa8;" horiz-adv-x="222" 
d="M0 619v102h64v-102h-64zM158 619v102h64v-102h-64z" />
    <glyph glyph-name="copyright" unicode="&#xa9;" horiz-adv-x="800" 
d="M401 -12q-157 0 -269 107.5t-112 267.5q0 159 112 266t269 107q156 0 267.5 -107t111.5 -266q0 -160 -111.5 -267.5t-267.5 -107.5zM704 363q0 132 -87.5 221.5t-215.5 89.5q-130 0 -217.5 -89.5t-87.5 -221.5q0 -134 88 -223.5t217 -89.5t216 89.5t87 223.5zM530 292h69
q-15 -73 -65.5 -116t-119.5 -43q-99 0 -159.5 65.5t-60.5 165.5t58.5 164t158.5 64q73 0 124.5 -41t62.5 -114h-68q-8 41 -40 66t-78 25q-68 0 -106 -46t-38 -117q0 -69 40.5 -118.5t105.5 -49.5q47 0 78.5 26.5t37.5 68.5z" />
    <glyph glyph-name="ordfeminine" unicode="&#xaa;" horiz-adv-x="300" 
d="M274 730v-330h-42v46h-1h-2q-23 -52 -91 -52q-63 0 -95.5 48t-32.5 123t33 123t98 48q63 0 89 -52h-1h3v46h42zM72 565q0 -55 19 -86t52 -31q34 0 51.5 27t17.5 90q0 64 -17 90.5t-52 26.5q-71 0 -71 -117z" />
    <glyph glyph-name="guillemotleft" unicode="&#xab;" horiz-adv-x="444" 
d="M168 95l-124 180l124 180h72l-124 -180l124 -180h-72zM328 95l-124 180l124 180h72l-124 -180l124 -180h-72z" />
    <glyph glyph-name="logicalnot" unicode="&#xac;" horiz-adv-x="600" 
d="M481 121v192h-434v72h506v-264h-72z" />
    <glyph glyph-name="registered" unicode="&#xae;" horiz-adv-x="800" 
d="M322 334v-188h-66v432h165q153 0 153 -123q0 -54 -28.5 -83t-72.5 -36l111 -190h-79l-109 188h-74zM322 524v-136h79q58 0 83 15.5t24 55.5q0 65 -95 65h-91zM401 -12q-157 0 -269 107.5t-112 267.5q0 159 112 266t269 107q156 0 267.5 -107t111.5 -266
q0 -160 -111.5 -267.5t-267.5 -107.5zM704 363q0 132 -87.5 221.5t-215.5 89.5q-130 0 -217.5 -89.5t-87.5 -221.5q0 -134 88 -223.5t217 -89.5t216 89.5t87 223.5z" />
    <glyph glyph-name="macron" unicode="&#xaf;" horiz-adv-x="222" 
d="M-36 646v46h294v-46h-294z" />
    <glyph glyph-name="macron" unicode="&#x2c9;" horiz-adv-x="222" 
d="M-36 646v46h294v-46h-294z" />
    <glyph glyph-name="degree" unicode="&#xb0;" horiz-adv-x="400" 
d="M289 593q0 37 -25.5 63.5t-63.5 29.5q-38 0 -63.5 -26.5t-25.5 -66.5q0 -38 26 -65.5t63 -27.5q37 -3 63 24.5t26 68.5zM343 593q0 -60 -41.5 -101.5t-101.5 -41.5t-101.5 41.5t-41.5 101.5t41.5 101.5t101.5 41.5t101.5 -41.5t41.5 -101.5z" />
    <glyph glyph-name="plusminus" unicode="&#xb1;" horiz-adv-x="600" 
d="M262 343v163h72v-163h219v-72h-219v-163h-72v163h-215v72h215zM47 0v72h506v-72h-506z" />
    <glyph glyph-name="twosuperior" unicode="&#xb2;" horiz-adv-x="333" 
d="M302 294h-277v56l172 172q41 41 41 97q0 27 -17.5 44t-50.5 17q-44 0 -63 -25t-17 -64h-70q0 70 40 107.5t112 37.5q67 0 104.5 -31.5t37.5 -85.5q0 -41 -16 -76t-59 -75l-120 -114h183v-60z" />
    <glyph glyph-name="threesuperior" unicode="&#xb3;" horiz-adv-x="333" 
d="M13 422h66q0 -38 22.5 -59t63.5 -21q89 0 89 73q0 43 -32 67t-91 24v56q44 -3 74 11.5t30 52.5q0 26 -19 40t-52 14t-53 -20.5t-21 -48.5h-66q0 62 39 93.5t107 31.5q58 0 94.5 -30.5t36.5 -83.5q0 -35 -15.5 -58.5t-34.5 -30.5v-1q69 -24 69 -123q0 -57 -44.5 -90
t-107.5 -33q-155 0 -155 136z" />
    <glyph glyph-name="acute" unicode="&#xb4;" horiz-adv-x="222" 
d="M99 608h-51l111 140h77z" />
    <glyph glyph-name="mu" unicode="&#xb5;" 
d="M366 550h74v-550h-74v76h-2q-24 -86 -137 -86q-53 0 -93 20v-208h-74v748h74v-372q0 -122 102 -122q61 0 95.5 38t34.5 93v363z" />
    <glyph glyph-name="mu" unicode="&#x3bc;" 
d="M366 550h74v-550h-74v76h-2q-24 -86 -137 -86q-53 0 -93 20v-208h-74v748h74v-372q0 -122 102 -122q61 0 95.5 38t34.5 93v363z" />
    <glyph glyph-name="paragraph" unicode="&#xb6;" horiz-adv-x="600" 
d="M258 -92v434q-90 0 -149.5 55t-59.5 133q0 95 59 144.5t166 49.5h228v-816h-70v758h-104v-758h-70z" />
    <glyph glyph-name="periodcentered" unicode="&#xb7;" horiz-adv-x="278" 
d="M89 253q0 21 14.5 35.5t35.5 14.5t35.5 -14.5t14.5 -35.5t-14.5 -35.5t-35.5 -14.5t-35.5 14.5t-14.5 35.5z" />
    <glyph glyph-name="periodcentered" unicode="&#x2219;" horiz-adv-x="278" 
d="M89 253q0 21 14.5 35.5t35.5 14.5t35.5 -14.5t14.5 -35.5t-14.5 -35.5t-35.5 -14.5t-35.5 14.5t-14.5 35.5z" />
    <glyph glyph-name="cedilla" unicode="&#xb8;" horiz-adv-x="222" 
d="M10 -192l15 37q28 -15 59 -15q38 0 51.5 8t13.5 29q0 19 -12.5 29t-31.5 10q-23 0 -44 -7l-15 13l62 88h39l-49 -65l15 3q15 4 25 4q34 0 56.5 -21.5t22.5 -50.5q0 -43 -35 -63.5t-81 -20.5q-47 0 -91 22z" />
    <glyph glyph-name="onesuperior" unicode="&#xb9;" horiz-adv-x="333" 
d="M74 674v54h134v-434h-70v380h-64z" />
    <glyph glyph-name="ordmasculine" unicode="&#xba;" horiz-adv-x="300" 
d="M151 736q71 0 105.5 -47.5t34.5 -123.5t-34.5 -123.5t-105.5 -47.5q-72 0 -107 47.5t-35 123.5t35 123.5t107 47.5zM75 565q0 -50 19.5 -81.5t56.5 -31.5t55.5 31.5t18.5 81.5t-18.5 81.5t-55.5 31.5t-56.5 -31.5t-19.5 -81.5z" />
    <glyph glyph-name="guillemotright" unicode="&#xbb;" horiz-adv-x="444" 
d="M400 275l-124 -180h-72l124 180l-124 180h72zM240 275l-124 -180h-72l124 180l-124 180h72z" />
    <glyph glyph-name="onequarter" unicode="&#xbc;" horiz-adv-x="834" 
d="M666 94h-194v58l177 294h85v-292h59v-60h-59v-94h-68v94zM549 154h117v195h-2zM94 674v54h134v-434h-70v380h-64zM272 -12h-81l379 748h82z" />
    <glyph glyph-name="onehalf" unicode="&#xbd;" horiz-adv-x="834" 
d="M94 674v54h134v-434h-70v380h-64zM783 0h-277v56l172 172q41 41 41 97q0 27 -17.5 44t-50.5 17q-44 0 -63 -25t-17 -64h-70q0 70 40 107.5t112 37.5q67 0 104.5 -31.5t37.5 -85.5q0 -41 -16 -76t-59 -75l-120 -114h183v-60zM243 -12h-81l379 748h82z" />
    <glyph glyph-name="threequarters" unicode="&#xbe;" horiz-adv-x="834" 
d="M666 94h-194v58l177 294h85v-292h59v-60h-59v-94h-68v94zM549 154h117v195h-2zM33 422h66q0 -38 22.5 -59t63.5 -21q89 0 89 73q0 43 -32 67t-91 24v56q44 -3 74 11.5t30 52.5q0 26 -19 40t-52 14t-53 -20.5t-21 -48.5h-66q0 62 39 93.5t107 31.5q58 0 94.5 -30.5
t36.5 -83.5q0 -35 -15.5 -58.5t-34.5 -30.5v-1q69 -24 69 -123q0 -57 -44.5 -90t-107.5 -33q-155 0 -155 136zM298 -12h-81l379 748h82z" />
    <glyph glyph-name="questiondown" unicode="&#xbf;" horiz-adv-x="444" 
d="M346 52h78v-49q0 -83 -51 -136t-143 -53q-88 0 -141.5 51.5t-53.5 145.5q0 45 18 81t43 58t50.5 40.5t43.5 41t18 47.5v93h74v-121q0 -31 -17.5 -55.5t-42 -41t-49.5 -34t-42.5 -45.5t-17.5 -64q0 -131 116 -131q68 0 92.5 39.5t24.5 132.5zM208 550h74v-106h-74v106z
" />
    <glyph glyph-name="Agrave" unicode="&#xc0;" 
d="M148 288h198l-98 370h-2zM128 222l-60 -222h-70l198 724h104l202 -724h-75l-61 222h-238zM262 763l-137 140h77l111 -140h-51z" />
    <glyph glyph-name="Aacute" unicode="&#xc1;" 
d="M148 288h198l-98 370h-2zM128 222l-60 -222h-70l198 724h104l202 -724h-75l-61 222h-238zM238 763h-51l111 140h77z" />
    <glyph glyph-name="Acircumflex" unicode="&#xc2;" 
d="M148 288h198l-98 370h-2zM128 222l-60 -222h-70l198 724h104l202 -724h-75l-61 222h-238zM103 763l114 140h67l113 -140h-65l-82 103l-83 -103h-64z" />
    <glyph glyph-name="Atilde" unicode="&#xc3;" 
d="M148 288h198l-98 370h-2zM128 222l-60 -222h-70l198 724h104l202 -724h-75l-61 222h-238zM131 775h-38q10 88 88 98q16 2 70.5 -22t73.5 -24t30 14.5t14 35.5h38q-17 -96 -88 -96q-23 0 -73.5 22t-66.5 22q-38 0 -48 -50z" />
    <glyph glyph-name="Adieresis" unicode="&#xc4;" 
d="M148 288h198l-98 370h-2zM128 222l-60 -222h-70l198 724h104l202 -724h-75l-61 222h-238zM139 774v102h64v-102h-64zM297 774v102h64v-102h-64z" />
    <glyph glyph-name="Aring" unicode="&#xc5;" 
d="M148 288h198l-98 370h-2zM128 222l-60 -222h-70l198 724h104l202 -724h-75l-61 222h-238zM250 765q-44 0 -75 31t-31 75t31 75t75 31t75 -31.5t31 -74.5q0 -44 -31 -75t-75 -31zM250 937q-28 0 -47 -19.5t-19 -46.5q0 -28 19 -47t47 -19q27 0 46.5 19t19.5 47
q0 27 -19.5 46.5t-46.5 19.5z" />
    <glyph glyph-name="AE" unicode="&#xc6;" horiz-adv-x="833" 
d="M405 222h-224l-116 -222h-79l386 724h397v-66h-286v-244h286v-66h-286v-282h286v-66h-364v222zM218 288h187v364h-2z" />
    <glyph glyph-name="Ccedilla" unicode="&#xc7;" horiz-adv-x="556" 
d="M524 458h-76q-2 52 -18 98t-54 80t-92 34q-169 0 -169 -308q0 -145 45 -226.5t124 -81.5q151 0 162 196h78q0 -117 -63 -189.5t-183 -72.5q-119 0 -183 103.5t-64 270.5q0 168 65 271t186 103q114 0 177.5 -80t64.5 -198zM177 -192l15 37q28 -15 59 -15q38 0 51.5 8
t13.5 29q0 19 -12.5 29t-31.5 10q-23 0 -44 -7l-15 13l62 88h39l-49 -65l15 3q15 4 25 4q34 0 56.5 -21.5t22.5 -50.5q0 -43 -35 -63.5t-81 -20.5q-47 0 -91 22z" />
    <glyph glyph-name="Egrave" unicode="&#xc8;" 
d="M436 0h-364v724h364v-66h-286v-244h286v-66h-286v-282h286v-66zM262 763l-137 140h77l111 -140h-51z" />
    <glyph glyph-name="Eacute" unicode="&#xc9;" 
d="M436 0h-364v724h364v-66h-286v-244h286v-66h-286v-282h286v-66zM238 763h-51l111 140h77z" />
    <glyph glyph-name="Ecircumflex" unicode="&#xca;" 
d="M436 0h-364v724h364v-66h-286v-244h286v-66h-286v-282h286v-66zM103 763l114 140h67l113 -140h-65l-82 103l-83 -103h-64z" />
    <glyph glyph-name="Edieresis" unicode="&#xcb;" 
d="M436 0h-364v724h364v-66h-286v-244h286v-66h-286v-282h286v-66zM139 774v102h64v-102h-64zM297 774v102h64v-102h-64z" />
    <glyph glyph-name="Igrave" unicode="&#xcc;" horiz-adv-x="222" 
d="M150 0h-78v724h78v-724zM123 763l-137 140h77l111 -140h-51z" />
    <glyph glyph-name="Iacute" unicode="&#xcd;" horiz-adv-x="222" 
d="M150 0h-78v724h78v-724zM99 763h-51l111 140h77z" />
    <glyph glyph-name="Icircumflex" unicode="&#xce;" horiz-adv-x="222" 
d="M150 0h-78v724h78v-724zM-36 763l114 140h67l113 -140h-65l-82 103l-83 -103h-64z" />
    <glyph glyph-name="Idieresis" unicode="&#xcf;" horiz-adv-x="222" 
d="M150 0h-78v724h78v-724zM0 774v102h64v-102h-64zM158 774v102h64v-102h-64z" />
    <glyph glyph-name="Eth" unicode="&#xd0;" horiz-adv-x="611" 
d="M-12 408h84v316h223q138 0 211 -100t73 -262t-73 -262t-211 -100h-223v342h-84v66zM150 408h194v-66h-194v-276h145q95 0 147.5 75t52.5 221t-52.5 221t-147.5 75h-145v-250z" />
    <glyph glyph-name="Ntilde" unicode="&#xd1;" horiz-adv-x="611" 
d="M150 0h-78v724h84l303 -549h2v549h78v-724h-74l-313 576h-2v-576zM187 775h-38q10 88 88 98q16 2 70.5 -22t73.5 -24t30 14.5t14 35.5h38q-17 -96 -88 -96q-23 0 -73.5 22t-66.5 22q-38 0 -48 -50z" />
    <glyph glyph-name="Ograve" unicode="&#xd2;" horiz-adv-x="611" 
d="M305 736q137 0 205.5 -102t68.5 -272t-68.5 -272t-205.5 -102t-205.5 102t-68.5 272t68.5 272t205.5 102zM305 670q-190 0 -190 -308t190 -308t190 308t-190 308zM318 763l-137 140h77l111 -140h-51z" />
    <glyph glyph-name="Oacute" unicode="&#xd3;" horiz-adv-x="611" 
d="M305 736q137 0 205.5 -102t68.5 -272t-68.5 -272t-205.5 -102t-205.5 102t-68.5 272t68.5 272t205.5 102zM305 670q-190 0 -190 -308t190 -308t190 308t-190 308zM294 763h-51l111 140h77z" />
    <glyph glyph-name="Ocircumflex" unicode="&#xd4;" horiz-adv-x="611" 
d="M305 736q137 0 205.5 -102t68.5 -272t-68.5 -272t-205.5 -102t-205.5 102t-68.5 272t68.5 272t205.5 102zM305 670q-190 0 -190 -308t190 -308t190 308t-190 308zM159 763l114 140h67l113 -140h-65l-82 103l-83 -103h-64z" />
    <glyph glyph-name="Otilde" unicode="&#xd5;" horiz-adv-x="611" 
d="M305 736q137 0 205.5 -102t68.5 -272t-68.5 -272t-205.5 -102t-205.5 102t-68.5 272t68.5 272t205.5 102zM305 670q-190 0 -190 -308t190 -308t190 308t-190 308zM187 775h-38q10 88 88 98q16 2 70.5 -22t73.5 -24t30 14.5t14 35.5h38q-17 -96 -88 -96q-23 0 -73.5 22
t-66.5 22q-38 0 -48 -50z" />
    <glyph glyph-name="Odieresis" unicode="&#xd6;" horiz-adv-x="611" 
d="M305 736q137 0 205.5 -102t68.5 -272t-68.5 -272t-205.5 -102t-205.5 102t-68.5 272t68.5 272t205.5 102zM305 670q-190 0 -190 -308t190 -308t190 308t-190 308zM195 774v102h64v-102h-64zM353 774v102h64v-102h-64z" />
    <glyph glyph-name="multiply" unicode="&#xd7;" horiz-adv-x="600" 
d="M553 456l-202 -203l202 -203l-51 -50l-202 202l-202 -202l-51 50l202 203l-202 203l51 50l202 -202l202 202z" />
    <glyph glyph-name="Oslash" unicode="&#xd8;" horiz-adv-x="611" 
d="M142 173l281 451q-45 46 -118 46q-190 0 -190 -308q0 -114 27 -189zM460 567l-283 -455q45 -58 128 -58q190 0 190 308q0 134 -35 205zM85 -36h-73l83 134q-64 96 -64 264q0 170 68.5 272t205.5 102q92 0 156 -50l47 74h73l-75 -120q73 -98 73 -278q0 -170 -68.5 -272
t-205.5 -102q-102 0 -168 60z" />
    <glyph glyph-name="Ugrave" unicode="&#xd9;" horiz-adv-x="556" 
d="M59 724h78v-520q0 -76 37 -113t104 -37t104 37t37 113v520h78v-536q0 -97 -56 -148.5t-163 -51.5t-163 51.5t-56 148.5v536zM290 763l-137 140h77l111 -140h-51z" />
    <glyph glyph-name="Uacute" unicode="&#xda;" horiz-adv-x="556" 
d="M59 724h78v-520q0 -76 37 -113t104 -37t104 37t37 113v520h78v-536q0 -97 -56 -148.5t-163 -51.5t-163 51.5t-56 148.5v536zM266 763h-51l111 140h77z" />
    <glyph glyph-name="Ucircumflex" unicode="&#xdb;" horiz-adv-x="556" 
d="M59 724h78v-520q0 -76 37 -113t104 -37t104 37t37 113v520h78v-536q0 -97 -56 -148.5t-163 -51.5t-163 51.5t-56 148.5v536zM131 763l114 140h67l113 -140h-65l-82 103l-83 -103h-64z" />
    <glyph glyph-name="Udieresis" unicode="&#xdc;" horiz-adv-x="556" 
d="M59 724h78v-520q0 -76 37 -113t104 -37t104 37t37 113v520h78v-536q0 -97 -56 -148.5t-163 -51.5t-163 51.5t-56 148.5v536zM167 774v102h64v-102h-64zM325 774v102h64v-102h-64z" />
    <glyph glyph-name="Yacute" unicode="&#xdd;" 
d="M496 724l-207 -436v-288h-78v288l-207 436h88l158 -354l159 354h87zM232 763h-51l111 140h77z" />
    <glyph glyph-name="Thorn" unicode="&#xde;" horiz-adv-x="556" 
d="M150 588h147q114 0 170.5 -60.5t56.5 -158.5t-56 -156.5t-171 -58.5h-147v-154h-78v723h78v-135zM286 522h-136v-302h145q66 0 105.5 37.5t39.5 111.5q0 153 -154 153z" />
    <glyph glyph-name="germandbls" unicode="&#xdf;" horiz-adv-x="556" 
d="M139 0h-74v536q0 80 58 134t145 54q89 0 143.5 -49.5t54.5 -136.5q0 -141 -92 -162v-2q66 -7 105 -57.5t39 -119.5q0 -94 -57.5 -148.5t-152.5 -54.5q-63 0 -110 35.5t-57 94.5h-2v-124zM226 328v66q166 0 166 135q0 62 -32.5 95.5t-93.5 33.5q-127 0 -127 -155v-303h46
q2 -62 35.5 -98t95.5 -36q55 0 91.5 34t36.5 95q0 73 -48 103t-170 30z" />
    <glyph glyph-name="agrave" unicode="&#xe0;" 
d="M440 550v-550h-66v77h-2q-21 -49 -54.5 -68t-87.5 -19q-97 0 -146.5 80.5t-49.5 204.5q0 125 50.5 205t150.5 80q43 0 80.5 -21.5t56.5 -64.5h2v76h66zM108 275q0 -105 33 -162t98 -57q66 0 98.5 50.5t32.5 168.5t-32.5 168.5t-98.5 50.5q-67 0 -99 -53.5t-32 -165.5z
M254 608l-137 140h77l111 -140h-51z" />
    <glyph glyph-name="aacute" unicode="&#xe1;" 
d="M440 550v-550h-66v77h-2q-21 -49 -54.5 -68t-87.5 -19q-97 0 -146.5 80.5t-49.5 204.5q0 125 50.5 205t150.5 80q43 0 80.5 -21.5t56.5 -64.5h2v76h66zM108 275q0 -105 33 -162t98 -57q66 0 98.5 50.5t32.5 168.5t-32.5 168.5t-98.5 50.5q-67 0 -99 -53.5t-32 -165.5z
M230 608h-51l111 140h77z" />
    <glyph glyph-name="acircumflex" unicode="&#xe2;" 
d="M440 550v-550h-66v77h-2q-21 -49 -54.5 -68t-87.5 -19q-97 0 -146.5 80.5t-49.5 204.5q0 125 50.5 205t150.5 80q43 0 80.5 -21.5t56.5 -64.5h2v76h66zM108 275q0 -105 33 -162t98 -57q66 0 98.5 50.5t32.5 168.5t-32.5 168.5t-98.5 50.5q-67 0 -99 -53.5t-32 -165.5z
M95 608l114 140h67l113 -140h-65l-82 103l-83 -103h-64z" />
    <glyph glyph-name="atilde" unicode="&#xe3;" 
d="M440 550v-550h-66v77h-2q-21 -49 -54.5 -68t-87.5 -19q-97 0 -146.5 80.5t-49.5 204.5q0 125 50.5 205t150.5 80q43 0 80.5 -21.5t56.5 -64.5h2v76h66zM108 275q0 -105 33 -162t98 -57q66 0 98.5 50.5t32.5 168.5t-32.5 168.5t-98.5 50.5q-67 0 -99 -53.5t-32 -165.5z
M123 620h-38q10 88 88 98q16 2 70.5 -22t73.5 -24t30 14.5t14 35.5h38q-17 -96 -88 -96q-23 0 -73.5 22t-66.5 22q-38 0 -48 -50z" />
    <glyph glyph-name="adieresis" unicode="&#xe4;" 
d="M440 550v-550h-66v77h-2q-21 -49 -54.5 -68t-87.5 -19q-97 0 -146.5 80.5t-49.5 204.5q0 125 50.5 205t150.5 80q43 0 80.5 -21.5t56.5 -64.5h2v76h66zM108 275q0 -105 33 -162t98 -57q66 0 98.5 50.5t32.5 168.5t-32.5 168.5t-98.5 50.5q-67 0 -99 -53.5t-32 -165.5z
M131 619v102h64v-102h-64zM289 619v102h64v-102h-64z" />
    <glyph glyph-name="aring" unicode="&#xe5;" 
d="M440 550v-550h-66v77h-2q-21 -49 -54.5 -68t-87.5 -19q-97 0 -146.5 80.5t-49.5 204.5q0 125 50.5 205t150.5 80q43 0 80.5 -21.5t56.5 -64.5h2v76h66zM108 275q0 -105 33 -162t98 -57q66 0 98.5 50.5t32.5 168.5t-32.5 168.5t-98.5 50.5q-67 0 -99 -53.5t-32 -165.5z
M242 610q-44 0 -75 31t-31 75t31 75t75 31t75 -31t31 -75t-31 -75t-75 -31zM242 782q-28 0 -47 -19.5t-19 -46.5q0 -28 19 -47t47 -19q27 0 46.5 19t19.5 47q0 27 -19.5 46.5t-46.5 19.5z" />
    <glyph glyph-name="ae" unicode="&#xe6;" horiz-adv-x="778" 
d="M97 275q0 -105 33 -162t98 -57q67 0 100 50.5t33 168.5t-33 168.5t-100 50.5t-99 -53.5t-32 -165.5zM755 248h-320q0 -80 35.5 -136t96.5 -56q54 0 82 38.5t35 94.5h71q0 -75 -53.5 -137t-129.5 -62q-49 0 -81 15.5t-54 61.5h-2v-67h-66v67h-2q-30 -44 -63 -60.5
t-85 -16.5q-97 0 -146.5 80.5t-49.5 204.5q0 125 50.5 205t150.5 80q50 0 82.5 -20t54.5 -68h8v78h66v-78h2q41 88 130 88t138.5 -70t49.5 -195v-47zM435 314h246q0 84 -29.5 132t-87.5 48q-55 0 -91.5 -50t-37.5 -130z" />
    <glyph glyph-name="ccedilla" unicode="&#xe7;" horiz-adv-x="444" 
d="M411 354h-74q-3 58 -29.5 99t-77.5 41q-122 0 -122 -219q0 -107 33 -163t89 -56q53 0 78.5 35.5t34.5 99.5h73q-17 -201 -190 -201q-96 0 -144 73.5t-48 211.5q0 134 48.5 209.5t147.5 75.5q89 0 134 -57.5t47 -148.5zM121 -192l15 37q28 -15 59 -15q38 0 51.5 8t13.5 29
q0 19 -12.5 29t-31.5 10q-23 0 -44 -7l-15 13l62 88h39l-49 -65l15 3q15 4 25 4q34 0 56.5 -21.5t22.5 -50.5q0 -43 -35 -63.5t-81 -20.5q-47 0 -91 22z" />
    <glyph glyph-name="egrave" unicode="&#xe8;" horiz-adv-x="444" 
d="M416 248h-314q0 -80 35.5 -136t96.5 -56q50 0 77 38.5t34 94.5h71q0 -75 -53.5 -137t-129.5 -62q-94 0 -149.5 75t-55.5 211q0 126 53.5 205t146.5 79q89 0 138.5 -70t49.5 -195v-47zM102 314h240q0 84 -29.5 132t-87.5 48q-51 0 -86.5 -50.5t-36.5 -129.5zM234 608
l-137 140h77l111 -140h-51z" />
    <glyph glyph-name="eacute" unicode="&#xe9;" horiz-adv-x="444" 
d="M416 248h-314q0 -80 35.5 -136t96.5 -56q50 0 77 38.5t34 94.5h71q0 -75 -53.5 -137t-129.5 -62q-94 0 -149.5 75t-55.5 211q0 126 53.5 205t146.5 79q89 0 138.5 -70t49.5 -195v-47zM102 314h240q0 84 -29.5 132t-87.5 48q-51 0 -86.5 -50.5t-36.5 -129.5zM210 608h-51
l111 140h77z" />
    <glyph glyph-name="ecircumflex" unicode="&#xea;" horiz-adv-x="444" 
d="M416 248h-314q0 -80 35.5 -136t96.5 -56q50 0 77 38.5t34 94.5h71q0 -75 -53.5 -137t-129.5 -62q-94 0 -149.5 75t-55.5 211q0 126 53.5 205t146.5 79q89 0 138.5 -70t49.5 -195v-47zM102 314h240q0 84 -29.5 132t-87.5 48q-51 0 -86.5 -50.5t-36.5 -129.5zM75 608
l114 140h67l113 -140h-65l-82 103l-83 -103h-64z" />
    <glyph glyph-name="edieresis" unicode="&#xeb;" horiz-adv-x="444" 
d="M416 248h-314q0 -80 35.5 -136t96.5 -56q50 0 77 38.5t34 94.5h71q0 -75 -53.5 -137t-129.5 -62q-94 0 -149.5 75t-55.5 211q0 126 53.5 205t146.5 79q89 0 138.5 -70t49.5 -195v-47zM102 314h240q0 84 -29.5 132t-87.5 48q-51 0 -86.5 -50.5t-36.5 -129.5zM111 619v102
h64v-102h-64zM269 619v102h64v-102h-64z" />
    <glyph glyph-name="igrave" unicode="&#xec;" horiz-adv-x="222" 
d="M148 0h-74v550h74v-550zM123 608l-137 140h77l111 -140h-51z" />
    <glyph glyph-name="iacute" unicode="&#xed;" horiz-adv-x="222" 
d="M148 0h-74v550h74v-550zM99 608h-51l111 140h77z" />
    <glyph glyph-name="icircumflex" unicode="&#xee;" horiz-adv-x="222" 
d="M148 0h-74v550h74v-550zM-36 608l114 140h67l113 -140h-65l-82 103l-83 -103h-64z" />
    <glyph glyph-name="idieresis" unicode="&#xef;" horiz-adv-x="222" 
d="M148 0h-74v550h74v-550zM0 619v102h64v-102h-64zM158 619v102h64v-102h-64z" />
    <glyph glyph-name="eth" unicode="&#xf0;" 
d="M108 224q0 -71 38 -119.5t104 -48.5t104 48.5t38 119.5t-38 119.5t-104 48.5t-104 -48.5t-38 -119.5zM114 696l50 40q64 -31 117 -79l113 79l34 -44l-108 -74q68 -75 107 -170t39 -191q0 -123 -53 -195t-163 -72q-109 0 -162.5 68.5t-53.5 165.5t53.5 165.5t162.5 68.5
q66 0 102 -19q-19 68 -86 141l-114 -80l-32 45l106 74q-54 48 -112 77z" />
    <glyph glyph-name="ntilde" unicode="&#xf1;" 
d="M134 0h-74v550h74v-76h2q24 86 137 86q84 0 125.5 -46.5t41.5 -119.5v-394h-74v372q0 122 -102 122q-61 0 -95.5 -38t-34.5 -93v-363zM131 620h-38q10 88 88 98q16 2 70.5 -22t73.5 -24t30 14.5t14 35.5h38q-17 -96 -88 -96q-23 0 -73.5 22t-66.5 22q-38 0 -48 -50z" />
    <glyph glyph-name="ograve" unicode="&#xf2;" 
d="M250 560q110 0 163 -79.5t53 -205.5t-53 -205.5t-163 -79.5t-163 79.5t-53 205.5t53 205.5t163 79.5zM250 494q-68 0 -105 -59.5t-37 -159.5t37 -159.5t105 -59.5t105 59.5t37 159.5t-37 159.5t-105 59.5zM262 608l-137 140h77l111 -140h-51z" />
    <glyph glyph-name="oacute" unicode="&#xf3;" 
d="M250 560q110 0 163 -79.5t53 -205.5t-53 -205.5t-163 -79.5t-163 79.5t-53 205.5t53 205.5t163 79.5zM250 494q-68 0 -105 -59.5t-37 -159.5t37 -159.5t105 -59.5t105 59.5t37 159.5t-37 159.5t-105 59.5zM238 608h-51l111 140h77z" />
    <glyph glyph-name="ocircumflex" unicode="&#xf4;" 
d="M250 560q110 0 163 -79.5t53 -205.5t-53 -205.5t-163 -79.5t-163 79.5t-53 205.5t53 205.5t163 79.5zM250 494q-68 0 -105 -59.5t-37 -159.5t37 -159.5t105 -59.5t105 59.5t37 159.5t-37 159.5t-105 59.5zM103 608l114 140h67l113 -140h-65l-82 103l-83 -103h-64z" />
    <glyph glyph-name="otilde" unicode="&#xf5;" 
d="M250 560q110 0 163 -79.5t53 -205.5t-53 -205.5t-163 -79.5t-163 79.5t-53 205.5t53 205.5t163 79.5zM250 494q-68 0 -105 -59.5t-37 -159.5t37 -159.5t105 -59.5t105 59.5t37 159.5t-37 159.5t-105 59.5zM131 620h-38q10 88 88 98q16 2 70.5 -22t73.5 -24t30 14.5
t14 35.5h38q-17 -96 -88 -96q-23 0 -73.5 22t-66.5 22q-38 0 -48 -50z" />
    <glyph glyph-name="odieresis" unicode="&#xf6;" 
d="M250 560q110 0 163 -79.5t53 -205.5t-53 -205.5t-163 -79.5t-163 79.5t-53 205.5t53 205.5t163 79.5zM250 494q-68 0 -105 -59.5t-37 -159.5t37 -159.5t105 -59.5t105 59.5t37 159.5t-37 159.5t-105 59.5zM139 619v102h64v-102h-64zM297 619v102h64v-102h-64z" />
    <glyph glyph-name="divide" unicode="&#xf7;" horiz-adv-x="600" 
d="M553 217h-506v72h506v-72zM234 458q0 27 19.5 46.5t46.5 19.5t46.5 -19.5t19.5 -46.5t-19.5 -46.5t-46.5 -19.5t-46.5 19.5t-19.5 46.5zM234 48q0 27 19.5 46.5t46.5 19.5t46.5 -19.5t19.5 -46.5t-19.5 -46.5t-46.5 -19.5t-46.5 19.5t-19.5 46.5z" />
    <glyph glyph-name="oslash" unicode="&#xf8;" 
d="M135 135l181 339q-29 20 -66 20q-68 0 -105 -59.5t-37 -159.5q0 -85 27 -140zM359 427l-186 -344q32 -27 77 -27q68 0 105 59.5t37 159.5q0 97 -33 152zM88 -73h-65l72 133q-61 75 -61 215q0 126 53 205.5t163 79.5q60 0 100 -24l46 87h69l-67 -124q68 -75 68 -224
q0 -126 -53 -205.5t-163 -79.5q-65 0 -111 30z" />
    <glyph glyph-name="ugrave" unicode="&#xf9;" 
d="M366 550h74v-550h-74v76h-2q-24 -86 -137 -86q-84 0 -125.5 46.5t-41.5 119.5v394h74v-372q0 -122 102 -122q61 0 95.5 38t34.5 93v363zM262 608l-137 140h77l111 -140h-51z" />
    <glyph glyph-name="uacute" unicode="&#xfa;" 
d="M366 550h74v-550h-74v76h-2q-24 -86 -137 -86q-84 0 -125.5 46.5t-41.5 119.5v394h74v-372q0 -122 102 -122q61 0 95.5 38t34.5 93v363zM238 608h-51l111 140h77z" />
    <glyph glyph-name="ucircumflex" unicode="&#xfb;" 
d="M366 550h74v-550h-74v76h-2q-24 -86 -137 -86q-84 0 -125.5 46.5t-41.5 119.5v394h74v-372q0 -122 102 -122q61 0 95.5 38t34.5 93v363zM103 608l114 140h67l113 -140h-65l-82 103l-83 -103h-64z" />
    <glyph glyph-name="udieresis" unicode="&#xfc;" 
d="M366 550h74v-550h-74v76h-2q-24 -86 -137 -86q-84 0 -125.5 46.5t-41.5 119.5v394h74v-372q0 -122 102 -122q61 0 95.5 38t34.5 93v363zM139 619v102h64v-102h-64zM297 619v102h64v-102h-64z" />
    <glyph glyph-name="yacute" unicode="&#xfd;" horiz-adv-x="444" 
d="M436 550l-243 -764h-78l66 198l-173 566h75l135 -475h2l138 475h78zM210 608h-51l111 140h77z" />
    <glyph glyph-name="thorn" unicode="&#xfe;" 
d="M60 -198v922h74v-225h2q40 61 134 61q97 0 146.5 -80.5t49.5 -204.5q0 -125 -50.5 -205t-150.5 -80q-84 0 -129 66h-2v-254h-74zM392 275q0 105 -33 162t-98 57q-66 0 -98.5 -50.5t-32.5 -168.5t32.5 -168.5t98.5 -50.5q67 0 99 53.5t32 165.5z" />
    <glyph glyph-name="ydieresis" unicode="&#xff;" horiz-adv-x="444" 
d="M436 550l-243 -764h-78l66 198l-173 566h75l135 -475h2l138 475h78zM111 619v102h64v-102h-64zM269 619v102h64v-102h-64z" />
    <glyph glyph-name="dotlessi" unicode="&#x131;" horiz-adv-x="222" 
d="M148 0h-74v550h74v-550z" />
    <glyph glyph-name="Lslash" unicode="&#x141;" horiz-adv-x="444" 
d="M150 340v-274h276v-66h-354v309l-72 -29v70l72 29v345h78v-314l182 72v-70z" />
    <glyph glyph-name="lslash" unicode="&#x142;" horiz-adv-x="222" 
d="M148 378v-378h-74v340l-82 -43v71l82 43v313h74v-275l82 42v-71z" />
    <glyph glyph-name="OE" unicode="&#x152;" horiz-adv-x="944" 
d="M494 724h386v-66h-308v-244h308v-66h-308v-282h308v-66h-386v82h-2q-53 -94 -187 -94q-137 0 -205.5 102t-68.5 272t68.5 272t205.5 102q64 0 115 -30t72 -76h2v94zM491 372q0 128 -52.5 213t-133.5 85q-190 0 -190 -308t190 -308q186 0 186 318z" />
    <glyph glyph-name="oe" unicode="&#x153;" horiz-adv-x="778" 
d="M97 275q0 -100 36 -159.5t100 -59.5q66 0 99.5 59t33.5 160t-33.5 160t-99.5 59q-64 0 -100 -59.5t-36 -159.5zM755 248h-315q0 -80 35 -136t94 -56q52 0 80 38.5t35 94.5h71q0 -75 -53.5 -137t-129.5 -62q-122 0 -168 103q-56 -103 -165 -103q-110 0 -163 79.5
t-53 205.5t53 205.5t163 79.5q114 0 162 -111q50 111 166 111q89 0 138.5 -70t49.5 -195v-47zM440 314h241q0 84 -29.5 132t-87.5 48q-51 0 -87 -50.5t-37 -129.5z" />
    <glyph glyph-name="Scaron" unicode="&#x160;" 
d="M24 219h78q0 -86 34 -125.5t119 -39.5q142 0 142 137q0 54 -37 86.5t-89.5 50t-105.5 37.5t-90 63.5t-37 112.5q0 94 58 144.5t155 50.5q98 0 153 -57.5t55 -160.5h-78q0 152 -140 152q-56 0 -90.5 -32t-34.5 -90q0 -45 26.5 -74.5t66.5 -42.5t86.5 -30t86.5 -36.5
t66.5 -63t26.5 -107.5q0 -103 -64 -154.5t-164 -51.5q-223 0 -223 231zM391 903l-114 -140h-67l-113 140h65l82 -103l83 103h64z" />
    <glyph glyph-name="scaron" unicode="&#x161;" horiz-adv-x="444" 
d="M402 390h-74q-8 104 -110 104q-44 0 -71 -22t-27 -64q0 -35 30 -55t72.5 -31t85 -25.5t72.5 -49.5t30 -91q0 -75 -52 -120.5t-141 -45.5q-85 0 -137 45t-52 126h74q0 -49 31.5 -77t76.5 -28q122 0 122 90q0 41 -30 63.5t-72.5 32.5t-85 23t-72.5 48t-30 95
q0 67 47.5 109.5t122.5 42.5q90 0 139.5 -44t50.5 -126zM369 748l-114 -140h-67l-113 140h65l82 -103l83 103h64z" />
    <glyph glyph-name="Ydieresis" unicode="&#x178;" 
d="M496 724l-207 -436v-288h-78v288l-207 436h88l158 -354l159 354h87zM133 774v102h64v-102h-64zM291 774v102h64v-102h-64z" />
    <glyph glyph-name="Zcaron" unicode="&#x17d;" horiz-adv-x="444" 
d="M418 0h-402v58l302 600h-293v66h387v-58l-304 -600h310v-66zM363 903l-114 -140h-67l-113 140h65l82 -103l83 103h64z" />
    <glyph glyph-name="zcaron" unicode="&#x17e;" horiz-adv-x="444" 
d="M37 490v60h367v-72l-289 -418h289v-60h-382v56l296 434h-281zM369 748l-114 -140h-67l-113 140h65l82 -103l83 103h64z" />
    <glyph glyph-name="florin" unicode="&#x192;" horiz-adv-x="556" 
d="M10 -198l20 65q35 -15 58 -15q33 0 54 6t38.5 28.5t27.5 54t18 94.5t12.5 136t9.5 193h-147l6 62h146q10 168 59.5 239t153.5 71q31 0 79 -18l-17 -61q-37 13 -70 13q-70 0 -98.5 -57.5t-32.5 -188.5h150l-6 -60h-149q-4 -152 -15 -255t-28.5 -167.5t-48 -98.5t-65 -45.5
t-87.5 -11.5q-36 0 -68 16z" />
    <glyph glyph-name="circumflex" unicode="&#x2c6;" horiz-adv-x="222" 
d="M-36 608l114 140h67l113 -140h-65l-82 103l-83 -103h-64z" />
    <glyph glyph-name="caron" unicode="&#x2c7;" horiz-adv-x="222" 
d="M258 748l-114 -140h-67l-113 140h65l82 -103l83 103h64z" />
    <glyph glyph-name="breve" unicode="&#x2d8;" horiz-adv-x="222" 
d="M-32 741h38q15 -81 110 -81q39 0 66 21.5t35 59.5h37q-16 -127 -155 -127q-54 0 -92 36.5t-39 90.5z" />
    <glyph glyph-name="dotaccent" unicode="&#x2d9;" horiz-adv-x="222" 
d="M79 619v102h64v-102h-64z" />
    <glyph glyph-name="ring" unicode="&#x2da;" horiz-adv-x="222" 
d="M111 610q-44 0 -75 31t-31 75t31 75t75 31q43 0 74.5 -31t31.5 -75t-31 -75t-75 -31zM111 782q-28 0 -47 -19.5t-19 -46.5q0 -28 19 -47t47 -19q27 0 46.5 19t19.5 47q0 27 -19.5 46.5t-46.5 19.5z" />
    <glyph glyph-name="ogonek" unicode="&#x2db;" horiz-adv-x="222" 
d="M224 -120l14 -34q-89 -56 -142 -56q-42 0 -68.5 21t-26.5 63q0 24 9.5 43.5t30.5 34.5t38 25t48.5 19.5t44.5 12.5t43 10v-9q-24 -9 -37.5 -15t-37.5 -19t-37 -25t-23.5 -30.5t-10.5 -39.5q0 -23 15 -35t37 -12q38 0 103 46z" />
    <glyph glyph-name="tilde" unicode="&#x2dc;" horiz-adv-x="222" 
d="M-8 620h-38q10 88 88 98q16 2 70.5 -22t73.5 -24t30 14.5t14 35.5h38q-17 -96 -88 -96q-23 0 -73.5 22t-66.5 22q-38 0 -48 -50z" />
    <glyph glyph-name="hungarumlaut" unicode="&#x2dd;" horiz-adv-x="222" 
d="M35 608h-47l101 140h79zM159 608h-51l111 140h77z" />
    <glyph glyph-name="endash" unicode="&#x2013;" 
d="M500 252h-500v46h500v-46z" />
    <glyph glyph-name="emdash" unicode="&#x2014;" horiz-adv-x="1000" 
d="M1000 252h-1000v46h1000v-46z" />
    <glyph glyph-name="quoteleft" unicode="&#x2018;" horiz-adv-x="222" 
d="M88 736l112 -222h-66l-112 222h66z" />
    <glyph glyph-name="quoteright" unicode="&#x2019;" horiz-adv-x="222" 
d="M134 736h66l-112 -222h-66z" />
    <glyph glyph-name="quotesinglbase" unicode="&#x201a;" horiz-adv-x="222" 
d="M134 104h66l-112 -222h-66z" />
    <glyph glyph-name="quotedblleft" unicode="&#x201c;" horiz-adv-x="333" 
d="M88 736l112 -222h-66l-112 222h66zM199 736l112 -222h-66l-112 222h66z" />
    <glyph glyph-name="quotedblright" unicode="&#x201d;" horiz-adv-x="333" 
d="M245 736h66l-112 -222h-66zM134 736h66l-112 -222h-66z" />
    <glyph glyph-name="quotedblbase" unicode="&#x201e;" horiz-adv-x="333" 
d="M245 104h66l-112 -222h-66zM134 104h66l-112 -222h-66z" />
    <glyph glyph-name="dagger" unicode="&#x2020;" horiz-adv-x="444" 
d="M206 -92l-22 409l24 174l-160 -23v74l160 -26l-24 208h76l-24 -208l160 27v-79l-160 27l24 -174l-22 -409h-32z" />
    <glyph glyph-name="daggerdbl" unicode="&#x2021;" horiz-adv-x="444" 
d="M396 543v-79l-160 27l24 -175l-24 -175l160 27v-79l-160 27l24 -208h-76l24 208l-160 -26v74l160 -23l-24 175l24 175l-160 -23v74l160 -26l-24 208h76l-24 -208z" />
    <glyph glyph-name="bullet" unicode="&#x2022;" 
d="M69 362q-1 75 52 128t129 53t129 -53t52 -128q1 -75 -52 -128t-129 -53t-129 53t-52 128z" />
    <glyph glyph-name="ellipsis" unicode="&#x2026;" horiz-adv-x="1000" 
d="M132 100h70v-100h-70v100zM798 100h70v-100h-70v100zM465 100h70v-100h-70v100z" />
    <glyph glyph-name="perthousand" unicode="&#x2030;" horiz-adv-x="1000" 
d="M171 736q74 0 111.5 -51.5t37.5 -127.5t-37.5 -127.5t-111.5 -51.5t-111.5 51.5t-37.5 127.5t37.5 127.5t111.5 51.5zM171 688q-42 0 -69.5 -35t-27.5 -96t27.5 -96t69.5 -35t69.5 35t27.5 96t-27.5 96t-69.5 35zM496 346q74 0 111.5 -51.5t37.5 -127.5t-37.5 -127.5
t-111.5 -51.5t-111.5 51.5t-37.5 127.5t37.5 127.5t111.5 51.5zM496 298q-42 0 -69.5 -35t-27.5 -96t27.5 -96t69.5 -35t69.5 35t27.5 96t-27.5 96t-69.5 35zM829 346q74 0 111.5 -51.5t37.5 -127.5t-37.5 -127.5t-111.5 -51.5t-111.5 51.5t-37.5 127.5t37.5 127.5
t111.5 51.5zM829 298q-42 0 -69.5 -35t-27.5 -96t27.5 -96t69.5 -35t69.5 35t27.5 96t-27.5 96t-69.5 35zM213 -12h-63l299 748h62z" />
    <glyph glyph-name="guilsinglleft" unicode="&#x2039;" horiz-adv-x="278" 
d="M165 95l-124 180l124 180h72l-124 -180l124 -180h-72z" />
    <glyph glyph-name="guilsinglright" unicode="&#x203a;" horiz-adv-x="278" 
d="M237 275l-124 -180h-72l124 180l-124 180h72z" />
    <glyph glyph-name="fraction" unicode="&#x2044;" horiz-adv-x="167" 
d="M-86 -12h-81l419 748h82z" />
    <glyph glyph-name="fraction" unicode="&#x2215;" horiz-adv-x="167" 
d="M-86 -12h-81l419 748h82z" />
    <glyph glyph-name="Euro" unicode="&#x20ac;" horiz-adv-x="556" 
d="M512 688v-85q-54 56 -151 56q-80 0 -126 -52t-56 -138h291l-22 -67h-277q-1 -10 -1 -37q0 -29 1 -39h251l-22 -67h-221q12 -93 59 -143t124 -50q92 0 150 56v-87q-19 -19 -62 -32.5t-99 -13.5q-105 0 -169.5 67t-82.5 203h-74l23 67h45q-2 18 -2 39q0 7 0.5 19.5
t0.5 17.5h-67l23 67h50q17 123 79 195t175 72q53 0 95.5 -14.5t64.5 -33.5z" />
    <glyph glyph-name="trademark" unicode="&#x2122;" horiz-adv-x="990" 
d="M529 724l118 -294l116 294h113v-400h-74v324h-2l-129 -324h-50l-129 324h-2v-324h-74v400h113zM370 724v-58h-127v-342h-74v342h-127v58h328z" />
    <glyph glyph-name="minus" unicode="&#x2212;" horiz-adv-x="600" 
d="M553 289v-72h-506v72h506z" />
    <glyph glyph-name="fi" unicode="&#xfb01;" horiz-adv-x="444" 
d="M240 721v-57h-52q-25 0 -35 -13t-10 -42v-59h86v-60h-86v-490h-74v490h-69v60h69v57q0 117 115 117q8 0 17.5 -0.5t21 -1.5t17.5 -1zM370 0h-74v550h74v-550zM370 630h-74v90h74v-90z" />
    <glyph glyph-name="fl" unicode="&#xfb02;" horiz-adv-x="444" 
d="M240 721v-57h-52q-25 0 -35 -13t-10 -42v-59h86v-60h-86v-490h-74v490h-69v60h69v57q0 117 115 117q8 0 17.5 -0.5t21 -1.5t17.5 -1zM370 0h-74v724h74v-724z" />
    </font>
</defs>
</svg>
